# xmcd
#
# Track frame offsets: 
#        150
#        12760
#        27462
#        39995
#        51310
#        64992
#        77937
#        92010
#        105325
#        119530
#        130112
#        141880
#        152865
#        164902
#        177205
#        189677
#        200795
#        213815
#        223855
#        240190
#
# Disc length: 3379 seconds
#
# Revision: 4
# Processed by: cddbd v1.5.2PL0 Copyright (c) Steve Scherf et al.
# Submitted via: ExactAudioCopy v1.0b2
#
DISCID=230d3114
DTITLE=B.B. King - Do The Boogie!  B.B. King's Early 50s Classics
DYEAR=1988
DGENRE=Blues
TTITLE0=Boogie Woogie Woman
TTITLE1=Past Day
TTITLE2=I Gotta Find My Baby
TTITLE3=Bye Bye Baby
TTITLE4=Woke Up This Morning (My Baby's Gone)
TTITLE5=Please Love Me
TTITLE6=Blind Love
TTITLE7=When My Heart Beats Like A Hammer
TTITLE8=Whole Lotta Love
TTITLE9=That Ain't  The Way To Do It
TTITLE10=Everyday (I Have The Blues)
TTITLE11=Let's Do The Boogie
TTITLE12=Dark Is The Night - Part 1
TTITLE13=Dark Is The Night - Part 2
TTITLE14=Why I Sing The Blues
TTITLE15=Everything I Do Is Wrong
TTITLE16=The Woman I Love
TTITLE17=Jump With Your Baby
TTITLE18=Troubles, Troubles, Troubles
TTITLE19=Crying Won't Help You
EXTD=YEAR: 1988 ID3G:   0
EXTT0=
EXTT1=
EXTT2=
EXTT3=
EXTT4=
EXTT5=
EXTT6=
EXTT7=
EXTT8=
EXTT9=
EXTT10=
EXTT11=
EXTT12=
EXTT13=
EXTT14=
EXTT15=
EXTT16=
EXTT17=
EXTT18=
EXTT19=
PLAYORDER=
